<?xml version="1.0" encoding="UTF-8" standalone="no"?><!DOCTYPE svg PUBLIC "-//W3C//DTD SVG 1.1//EN" "http://www.w3.org/Graphics/SVG/1.1/DTD/svg11.dtd"><svg width="100%" height="100%" viewBox="0 0 800 709" version="1.1" xmlns="http://www.w3.org/2000/svg" xmlns:xlink="http://www.w3.org/1999/xlink" xml:space="preserve" xmlns:serif="http://www.serif.com/" style="fill-rule:evenodd;clip-rule:evenodd;stroke-linecap:round;stroke-linejoin:round;stroke-miterlimit:1.5;"><rect id="Artboard1" x="0" y="0" width="799.779" height="708.661" style="fill:none;"/><g><path d="M677.17,557.481l-572.631,0c-28.63,-36.888 -25.058,-70.368 -0,-101.575l572.631,0c-30.076,33.586 -30.283,67.442 -0,101.575Z" style="fill:none;stroke:#001f00;stroke-width:20.83px;"/><path d="M656.763,487.327l-131.601,-0" style="fill:none;stroke:#001f00;stroke-width:20.83px;"/><path d="M656.763,528.06l-131.601,0" style="fill:none;stroke:#001f00;stroke-width:20.83px;"/></g><g><path d="M715.395,455.906l-572.631,0c-28.63,-36.888 -25.058,-70.369 0,-101.575l572.631,-0c-30.076,33.585 -30.282,67.442 0,101.575Z" style="fill:none;stroke:#001f00;stroke-width:20.83px;"/><path d="M694.989,385.752l-131.602,-0" style="fill:none;stroke:#001f00;stroke-width:20.83px;"/><path d="M694.989,426.485l-131.602,-0" style="fill:none;stroke:#001f00;stroke-width:20.83px;"/></g><g><path d="M677.17,354.331l-572.631,-0c-28.63,-36.888 -25.058,-70.369 -0,-101.576l572.631,0c-30.076,33.586 -30.283,67.443 -0,101.576Z" style="fill:none;stroke:#001f00;stroke-width:20.83px;"/><path d="M656.763,284.176l-131.601,0" style="fill:none;stroke:#001f00;stroke-width:20.83px;"/><path d="M656.763,324.91l-131.601,-0" style="fill:none;stroke:#001f00;stroke-width:20.83px;"/></g><g><path d="M715.395,252.755l-572.631,0c-28.63,-36.888 -25.058,-70.368 0,-101.575l572.631,0c-30.076,33.586 -30.282,67.442 0,101.575Z" style="fill:none;stroke:#001f00;stroke-width:20.83px;"/><path d="M694.989,182.601l-131.602,-0" style="fill:none;stroke:#001f00;stroke-width:20.83px;"/><path d="M694.989,223.334l-131.602,0" style="fill:none;stroke:#001f00;stroke-width:20.83px;"/></g></svg>